<svg width="800" height="534" viewBox="0 0 800 534" fill="none" xmlns="http://www.w3.org/2000/svg">
<g clip-path="url(#clip0_341_592)">
<mask id="mask0_341_592" style="mask-type:luminance" maskUnits="userSpaceOnUse" x="0" y="367" width="748" height="109">
<path d="M638.971 367.143V386.431H683.374V475.211H702.661V386.431H747.063V367.143H638.995H638.971ZM305.111 475.138H324.399V367.07H305.111V475.138ZM19.2874 425.518H73.614C82.0019 425.518 88.8049 432.321 88.8049 440.709C88.8049 449.097 81.9775 455.9 73.614 455.9H19.2874V425.518ZM19.2874 386.333H68.1764C73.6627 386.333 78.1005 390.795 78.1005 396.257C78.1005 401.719 73.6383 406.182 68.1764 406.182H19.2874V386.309V386.333ZM0 367.07V475.163H73.614C92.6331 475.163 108.068 459.728 108.068 440.709C108.068 428.736 101.948 418.203 92.6819 412.034C95.6079 407.474 97.3635 402.085 97.3635 396.257C97.3635 380.14 84.2939 367.07 68.1764 367.07H0ZM239.495 367.046V421.104C239.495 440.294 223.89 455.9 204.7 455.9C185.51 455.9 169.905 440.294 169.905 421.104V367.046H150.642V421.104C150.642 450.95 174.854 475.163 204.7 475.163C234.545 475.163 258.758 450.95 258.758 421.104V367.046H239.495ZM459.581 381.944L424.835 408.717L390.088 381.944L370.776 367.046V475.187H390.088V406.352L409.034 420.934L424.835 433.125L440.635 420.934L459.581 406.352V475.187H478.917V367.046L459.581 381.944ZM528.928 455.851L519.102 475.187H540.73L550.629 455.851L574.184 409.546L597.738 455.851L607.614 475.187H629.242L619.415 455.851L574.135 367.046L528.879 455.851H528.928Z" fill="white"/>
</mask>
<g mask="url(#mask0_341_592)">
<path d="M747.039 367.046H0V475.211H747.039V367.046Z" fill="url(#paint0_linear_341_592)"/>
</g>
<mask id="mask1_341_592" style="mask-type:luminance" maskUnits="userSpaceOnUse" x="774" y="367" width="27" height="109">
<path d="M795.05 472.7C795.05 474.041 796.099 475.041 797.537 475.041C798.976 475.041 800.025 474.041 800.025 472.7C800.025 471.359 798.976 470.408 797.537 470.408C796.099 470.408 795.05 471.408 795.05 472.7ZM793.148 445.659C795.245 447.414 796.391 450.145 796.391 453.412C796.391 458.606 792.588 462.313 787.101 462.313C781.615 462.313 777.86 458.606 777.86 453.412C777.86 450.365 778.957 447.853 780.762 445.951L778.153 443.903C775.787 446.195 774.397 449.511 774.446 453.559C774.446 460.801 779.64 465.994 787.101 465.994C794.563 465.994 799.756 460.849 799.756 453.559C799.756 449.219 798.147 445.756 795.416 443.513L793.124 445.659H793.148ZM777.811 427.737C777.811 422.494 781.615 418.739 787.101 418.739C792.588 418.739 796.44 422.494 796.44 427.737C796.44 432.979 792.636 436.734 787.101 436.734C781.566 436.734 777.811 432.979 777.811 427.737ZM774.422 427.737C774.422 435.174 779.567 440.44 787.028 440.44C794.489 440.44 799.732 435.149 799.732 427.737C799.732 420.324 794.538 415.033 787.028 415.033C779.518 415.033 774.422 420.324 774.422 427.737ZM784.126 367.021C778.079 367.021 774.373 370.508 774.373 376.36C774.422 381.164 776.519 384.7 780.932 386.26C776.787 387.309 774.373 390.552 774.373 395.258C774.422 399.769 776.275 403.158 780.176 404.816H774.519V408.474H799.61V404.816H787.272C781.883 404.816 778.177 401.719 778.031 396.574C778.031 392.185 780.64 389.625 785.126 389.625H799.586V385.87H787.248C781.859 385.87 778.153 382.871 778.006 377.677C778.006 373.361 780.615 370.728 785.102 370.728H799.561V367.021H784.102H784.126Z" fill="white"/>
</mask>
<g mask="url(#mask1_341_592)">
<path d="M800.001 367.045H774.398V475.04H800.001V367.045Z" fill="url(#paint1_linear_341_592)"/>
</g>
<mask id="mask2_341_592" style="mask-type:luminance" maskUnits="userSpaceOnUse" x="298" y="-1" width="202" height="294">
<path d="M389.405 229.425H403.767V215.063H389.405V229.425ZM407.717 229.425H422.079V215.063H407.717V229.425ZM389.405 211.088H403.767V196.726H389.405V211.088ZM407.717 211.088H422.079V196.726H407.717V211.088ZM298.138 57.6425V292.408H499.131V202.018L405.767 137.255L359.535 169.392L359.926 196.409L405.767 163.979L477.162 213.502V270.438H320.107V69.1516L359.511 41.8907V138.498L381.481 123.21V-0.000244141L298.138 57.6425Z" fill="white"/>
</mask>
<g mask="url(#mask2_341_592)">
<path d="M499.131 -0.000244141H298.138V292.408H499.131V-0.000244141Z" fill="url(#paint2_linear_341_592)"/>
</g>
<path d="M58.0804 505.399V533.196H54.5205V505.399H44.3281V501.96H68.2972V505.399H58.0804Z" fill="black"/>
<path d="M103.336 533.196V519.468H84.5121V533.196H80.9277V501.96H84.5121V516.054H103.336V501.96H106.921V533.196H103.336Z" fill="black"/>
<path d="M127.377 505.399V515.664H143.129V519.102H127.377V529.806H145.592V533.196H123.793V501.96H145.007V505.399H127.377Z" fill="black"/>
<path d="M193.142 501.96C199.433 501.96 203.237 504.862 203.237 509.763C203.237 513.42 201.14 516.054 197.482 516.81C201.993 517.468 204.626 520.419 204.626 524.71C204.626 530.026 200.432 533.196 193.386 533.196H179.999V501.96H193.166H193.142ZM183.535 515.444H192.947C197.141 515.444 199.603 513.616 199.603 510.348C199.603 507.081 197.141 505.398 192.947 505.398H183.535V515.444ZM183.535 529.806H192.947C198.043 529.806 200.969 527.807 200.969 524.222C200.969 520.638 198.018 518.834 192.947 518.834H183.535V529.806Z" fill="black"/>
<path d="M244.909 520.345C244.909 528.465 240.007 533.391 231.839 533.391C223.671 533.391 218.672 528.49 218.672 520.345V501.96H222.232V520.345C222.232 526.417 225.889 529.953 231.839 529.953C237.789 529.953 241.349 526.417 241.349 520.345V501.96H244.909V520.345Z" fill="black"/>
<path d="M264.683 501.96H261.099V533.196H264.683V501.96Z" fill="black"/>
<path d="M298.845 529.806V533.196H281.581V501.96H285.141V529.806H298.845Z" fill="black"/>
<path d="M324.716 501.96C333.811 501.96 340.784 508.69 340.784 517.566C340.784 526.441 333.786 533.196 324.569 533.196H312.085V501.96H324.716ZM315.645 529.806H324.74C331.714 529.806 337.151 524.588 337.151 517.614C337.151 510.641 331.616 505.398 324.618 505.398H315.645V529.806Z" fill="black"/>
<path d="M358.316 505.398V515.664H374.068V519.102H358.316V529.806H376.531V533.196H354.732V501.96H375.946V505.398H358.316Z" fill="black"/>
<path d="M405.206 523.247C404.523 523.296 403.816 523.345 403.109 523.345H394.818V533.22H391.234V501.985H403.109C410.911 501.985 415.422 505.813 415.422 512.47C415.422 517.639 412.911 521.126 408.4 522.613L415.715 533.244H411.643L405.181 523.296L405.206 523.247ZM403.109 519.907C408.766 519.907 411.984 517.419 411.984 512.543C411.984 507.666 408.766 505.398 403.109 505.398H394.818V519.907H403.109Z" fill="black"/>
<path d="M432.832 504.228C432.832 504.935 432.564 505.52 432.174 506.154L430.077 509.373H428.102L429.565 506.105C428.907 505.715 428.59 504.984 428.59 504.228C428.59 502.887 429.468 501.96 430.687 501.96C431.906 501.96 432.832 502.862 432.832 504.228Z" fill="black"/>
<path d="M466.384 504.716L464.872 508.056C462.068 506.179 458.752 505.423 456.265 505.423C452.241 505.423 449.608 506.934 449.608 509.568C449.608 517.615 467.189 513.421 467.14 524.759C467.14 529.977 462.531 533.318 455.85 533.318C451.291 533.318 446.828 531.342 443.878 528.538L445.487 525.32C448.389 528.124 452.363 529.733 455.875 529.733C460.386 529.733 463.19 527.904 463.19 524.905C463.239 516.688 445.658 521.077 445.658 509.861C445.658 504.959 449.998 501.79 456.46 501.79C460.069 501.79 463.775 502.96 466.36 504.691" fill="black"/>
<path d="M526.368 506.423L524.222 509.153C521.808 506.691 518.419 505.228 514.981 505.228C507.934 505.228 502.252 510.665 502.252 517.541C502.252 524.418 507.909 529.855 514.981 529.855C518.419 529.855 521.759 528.416 524.222 526.1L526.416 528.563C523.344 531.464 519.15 533.391 514.81 533.391C505.788 533.391 498.668 526.393 498.668 517.541C498.668 508.69 505.886 501.863 514.956 501.863C519.248 501.863 523.393 503.594 526.392 506.423" fill="black"/>
<path d="M562.674 533.196V519.468H543.826V533.196H540.266V501.96H543.826V516.054H562.674V501.96H566.234V533.196H562.674Z" fill="black"/>
<path d="M612.904 517.59C612.904 526.392 605.687 533.391 596.567 533.391C587.448 533.391 580.182 526.392 580.182 517.59C580.182 508.788 587.399 501.887 596.567 501.887C605.736 501.887 612.904 508.812 612.904 517.59ZM583.815 517.59C583.815 524.466 589.618 529.952 596.592 529.952C603.565 529.952 609.271 524.466 609.271 517.59C609.271 510.714 603.565 505.276 596.592 505.276C589.618 505.276 583.815 510.714 583.815 517.59Z" fill="black"/>
<path d="M630.461 501.96H626.877V533.196H630.461V501.96Z" fill="black"/>
<path d="M672.133 506.423L669.987 509.153C667.573 506.691 664.184 505.228 660.746 505.228C653.699 505.228 648.017 510.665 648.017 517.541C648.017 524.418 653.699 529.855 660.746 529.855C664.184 529.855 667.524 528.416 669.987 526.1L672.182 528.563C669.109 531.464 664.915 533.391 660.575 533.391C651.553 533.391 644.409 526.393 644.409 517.541C644.409 508.69 651.651 501.863 660.697 501.863C664.988 501.863 669.134 503.594 672.133 506.423Z" fill="black"/>
<path d="M689.616 505.398V515.664H705.367V519.102H689.616V529.806H707.806V533.196H686.031V501.96H707.221V505.398H689.616Z" fill="black"/>
</g>
<defs>
<linearGradient id="paint0_linear_341_592" x1="-1.81926" y1="423.835" x2="745.22" y2="423.835" gradientUnits="userSpaceOnUse">
<stop stop-color="#00456C"/>
<stop offset="1" stop-color="#00A6D2"/>
</linearGradient>
<linearGradient id="paint1_linear_341_592" x1="778.617" y1="423.749" x2="804.22" y2="423.749" gradientUnits="userSpaceOnUse">
<stop stop-color="#00456C"/>
<stop offset="1" stop-color="#00A6D2"/>
</linearGradient>
<linearGradient id="paint2_linear_341_592" x1="291.389" y1="142.859" x2="492.382" y2="142.859" gradientUnits="userSpaceOnUse">
<stop stop-color="#00456C"/>
<stop offset="1" stop-color="#00A6D2"/>
</linearGradient>
<clipPath id="clip0_341_592">
<rect width="800" height="533.391" fill="white"/>
</clipPath>
</defs>
</svg>
